This is a stereoscopic 3D rip of Saw 3D, for new 3D TVs or computers with Nvidia 3D Vision. Tested with Stereoscopic Player. Enjoy!

Title: Saw 3D: The Final Chapter (2010)
Rated: R
Runtime: 90 minutes
Genre: Crime | Horror | Mystery

Description:
As a deadly battle rages over Jigsaw's brutal legacy, a group of Jigsaw survivors gathers to seek the support of self-help guru and fellow survivor Bobby Dagen, a man whose own dark secrets unleash a new wave of terror.
-From IMDB Page: http://www.imdb.com/title/tt1477076/

General
Unique ID : 179335730705953156291064330373253063531 (0x86EACE2DCF8B2562BC98EF84E730636B)
Complete name : [filepath]\SAW - The Final Chapter 3D.mkv
Format : Matroska
File size : 8.97 GiB
Duration : 1h 30mn
Overall bit rate : 14.2 Mbps
Encoded date : UTC 2011-01-22 01:18:16
Writing application : mkvmerge v4.0.0 ('The Stars were mine') built on Jun 6 2010 16:18:42
Writing library : libebml v1.0.0 + libmatroska v1.0.0

Video
ID : 1
Format : AVC
Format/Info : Advanced Video Codec
Format profile : High@L4.1
Format settings, CABAC : Yes
Format settings, ReFrames : 4 frames
Format settings, GOP : M=1, N=43
Codec ID : V_MPEG4/ISO/AVC
Duration : 1h 30mn
Bit rate : 12.5 Mbps
Width : 1 920 pixels
Height : 1 080 pixels
Display aspect ratio : 16:9
Frame rate : 23.976 fps
Color space : YUV
Chroma subsampling : 4:2:0
Bit depth : 8 bits
Scan type : Progressive
Bits/(Pixel*Frame) : 0.250
Stream size : 7.84 GiB (87%)
Writing library : x264 core 112 r1867 22bfd31
Language : English

Audio
ID : 2
Format : DTS
Format/Info : Digital Theater Systems
Codec ID : A_DTS
Duration : 1h 30mn
Bit rate mode : Constant
Bit rate : 1 510 Kbps
Channel(s) : 6 channels
Channel positions : Front: L C R, Side: L R, LFE
Sampling rate : 48.0 KHz
Bit depth : 24 bits
Compression mode : Lossy
Stream size : 974 MiB (11%)
Language : English